<svg preserveAspectRatio="none" width="100%" height="100%" overflow="visible" style="display: block;" viewBox="0 0 96 96" fill="none" xmlns="http://www.w3.org/2000/svg">
<g id="Frame">
<path id="Vector" d="M70.0006 84H36.0006C30.8081 83.9987 25.7182 82.5535 21.2997 79.8259C16.8813 77.0983 13.3083 73.1958 10.9801 68.5545C8.65193 63.9131 7.66022 58.7158 8.11581 53.5433C8.5714 48.3708 10.4564 43.4268 13.56 39.2639C16.6637 35.101 20.8638 31.8832 25.691 29.9699C30.5183 28.0567 35.7824 27.5235 40.8952 28.4299C46.0081 29.3362 50.7682 31.6465 54.6436 35.1024C58.519 38.5584 61.3571 43.0239 62.8406 48H70.0006C72.3644 48 74.7051 48.4656 76.8889 49.3702C79.0728 50.2748 81.0571 51.6006 82.7286 53.2721C84.4 54.9435 85.7259 56.9278 86.6305 59.1117C87.5351 61.2956 88.0006 63.6362 88.0006 66C88.0006 68.3638 87.5351 70.7045 86.6305 72.8883C85.7259 75.0722 84.4 77.0565 82.7286 78.7279C81.0571 80.3994 79.0728 81.7253 76.8889 82.6298C74.7051 83.5344 72.3644 84 70.0006 84Z" stroke="var(--stroke-0, white)" stroke-width="8" stroke-linecap="round" stroke-linejoin="round"/>
<path id="Vector_2" d="M87.9954 39.9993C87.9954 36.8167 86.7311 33.7644 84.4807 31.514C82.2302 29.2635 79.178 27.9993 75.9954 27.9993H67.1674C65.8104 23.2246 62.8791 19.0488 58.8496 16.1502C54.8201 13.2515 49.929 11.8001 44.9707 12.0318C40.0123 12.2635 35.2778 14.1645 31.5361 17.4263C27.7944 20.688 25.2653 25.1188 24.3594 29.9993" stroke="var(--stroke-0, white)" stroke-width="8" stroke-linecap="round" stroke-linejoin="round"/>
</g>
</svg>
