<svg viewBox="0 0 200 200" xmlns="http://www.w3.org/2000/svg">
  <circle cx="100" cy="100" r="100" fill="#0d1117"/>
  <circle cx="100" cy="100" r="90" fill="none" stroke="#161b22" stroke-width="1"/>
  <!-- Simplified radial dots -->
  <g>
    <circle cx="100" cy="30" r="3" fill="#39d353"/>
    <circle cx="100" cy="40" r="3" fill="#26a641"/>
    <circle cx="100" cy="50" r="3" fill="#006d32"/>
    <circle cx="130" cy="32" r="3" fill="#0e4429"/>
    <circle cx="130" cy="42" r="3" fill="#39d353"/>
    <circle cx="130" cy="52" r="3" fill="#26a641"/>
    <circle cx="155" cy="42" r="3" fill="#26a641"/>
    <circle cx="155" cy="52" r="3" fill="#006d32"/>
    <circle cx="155" cy="62" r="3" fill="#39d353"/>
    <circle cx="170" cy="60" r="3" fill="#161b22"/>
    <circle cx="170" cy="70" r="3" fill="#39d353"/>
    <circle cx="170" cy="80" r="3" fill="#006d32"/>
    <circle cx="178" cy="85" r="3" fill="#26a641"/>
    <circle cx="178" cy="95" r="3" fill="#0e4429"/>
    <circle cx="178" cy="105" r="3" fill="#39d353"/>
    <circle cx="70" cy="32" r="3" fill="#26a641"/>
    <circle cx="70" cy="42" r="3" fill="#006d32"/>
    <circle cx="70" cy="52" r="3" fill="#161b22"/>
    <circle cx="45" cy="42" r="3" fill="#39d353"/>
    <circle cx="45" cy="52" r="3" fill="#0e4429"/>
    <circle cx="45" cy="62" r="3" fill="#26a641"/>
    <circle cx="30" cy="60" r="3" fill="#006d32"/>
    <circle cx="30" cy="70" r="3" fill="#161b22"/>
    <circle cx="30" cy="80" r="3" fill="#39d353"/>
    <circle cx="22" cy="85" r="3" fill="#26a641"/>
    <circle cx="22" cy="95" r="3" fill="#39d353"/>
    <circle cx="22" cy="105" r="3" fill="#006d32"/>
    <circle cx="170" cy="120" r="3" fill="#39d353"/>
    <circle cx="170" cy="130" r="3" fill="#26a641"/>
    <circle cx="170" cy="140" r="3" fill="#0e4429"/>
    <circle cx="155" cy="138" r="3" fill="#006d32"/>
    <circle cx="155" cy="148" r="3" fill="#39d353"/>
    <circle cx="155" cy="158" r="3" fill="#161b22"/>
    <circle cx="130" cy="158" r="3" fill="#26a641"/>
    <circle cx="130" cy="148" r="3" fill="#006d32"/>
    <circle cx="130" cy="168" r="3" fill="#39d353"/>
    <circle cx="100" cy="160" r="3" fill="#0e4429"/>
    <circle cx="100" cy="170" r="3" fill="#39d353"/>
    <circle cx="30" cy="120" r="3" fill="#006d32"/>
    <circle cx="30" cy="130" r="3" fill="#161b22"/>
    <circle cx="30" cy="140" r="3" fill="#39d353"/>
    <circle cx="45" cy="138" r="3" fill="#26a641"/>
    <circle cx="45" cy="148" r="3" fill="#0e4429"/>
    <circle cx="45" cy="158" r="3" fill="#006d32"/>
    <circle cx="70" cy="158" r="3" fill="#39d353"/>
    <circle cx="70" cy="148" r="3" fill="#161b22"/>
    <circle cx="70" cy="168" r="3" fill="#26a641"/>
  </g>
  <circle cx="100" cy="100" r="40" fill="#0d1117"/>
  <text x="100" y="106" text-anchor="middle" fill="#fff" font-size="18" font-weight="800" font-family="monospace">920</text>
</svg>
